<svg xmlns="http://www.w3.org/2000/svg" xmlns:xlink="http://www.w3.org/1999/xlink" viewBox="0 0 613.12 162.61"><defs><style>.cls-1{fill:#fff;}.cls-2{fill:url(#未命名漸層_59);}.cls-3{fill:url(#未命名漸層_50);}.cls-4{fill:url(#未命名漸層_50-2);}.cls-5{fill:url(#未命名漸層_50-3);}.cls-6{fill:#64cdf0;}.cls-7{fill:#46c8eb;}.cls-8{fill:url(#未命名漸層_73);}.cls-9{fill:url(#未命名漸層_66);}.cls-10{fill:url(#未命名漸層_67);}.cls-11{fill:url(#未命名漸層_52);}.cls-12{fill:url(#未命名漸層_80);}.cls-13{fill:url(#未命名漸層_53);}.cls-14{fill:url(#未命名漸層_366);}.cls-15{fill:url(#未命名漸層_55);}</style><linearGradient id="未命名漸層_59" x1="68.03" y1="140.21" x2="141.55" y2="140.21" gradientTransform="translate(-69.03 160.86) rotate(-60)" gradientUnits="userSpaceOnUse"><stop offset="0" stop-color="#46c8eb"/><stop offset="0.6" stop-color="#46c8eb"/><stop offset="0.89" stop-color="#00aae6"/></linearGradient><linearGradient id="未命名漸層_50" y1="61.68" x2="73.52" y2="61.68" gradientTransform="translate(1.72 124.36) rotate(-120)" gradientUnits="userSpaceOnUse"><stop offset="0" stop-color="#64cdf0"/><stop offset="1" stop-color="#46c8eb"/></linearGradient><linearGradient id="未命名漸層_50-2" x1="0" y1="100.73" x2="73.52" y2="100.73" gradientTransform="translate(-32.1 182.94) rotate(-120)" xlink:href="#未命名漸層_50"/><linearGradient id="未命名漸層_50-3" x1="0" y1="140.21" x2="73.52" y2="140.21" gradientTransform="translate(-66.28 242.15) rotate(-120)" xlink:href="#未命名漸層_50"/><linearGradient id="未命名漸層_73" x1="68.03" y1="61.46" x2="141.55" y2="61.46" gradientTransform="translate(105.62 -60.02) rotate(60)" gradientUnits="userSpaceOnUse"><stop offset="0.07" stop-color="#46c8eb"/><stop offset="1" stop-color="#00b4f0"/></linearGradient><linearGradient id="未命名漸層_66" x1="68.03" y1="100.94" x2="141.55" y2="100.94" gradientTransform="translate(139.81 -40.28) rotate(60)" gradientUnits="userSpaceOnUse"><stop offset="0" stop-color="#46c8eb"/><stop offset="0.96" stop-color="#00aae6"/></linearGradient><linearGradient id="未命名漸層_67" x1="138.76" y1="78.3" x2="138.76" y2="123.42" gradientUnits="userSpaceOnUse"><stop offset="0.05" stop-color="#00b4f0"/><stop offset="0.95" stop-color="#00aae6"/></linearGradient><linearGradient id="未命名漸層_52" x1="0.01" y1="22.41" x2="73.51" y2="22.41" gradientTransform="translate(74.55 1.78) rotate(120)" gradientUnits="userSpaceOnUse"><stop offset="0" stop-color="#64cdf0"/><stop offset="0.95" stop-color="#46c8eb"/></linearGradient><linearGradient id="未命名漸層_80" x1="68.03" y1="61.68" x2="141.55" y2="61.68" gradientTransform="translate(-1.02 121.59) rotate(-60)" gradientUnits="userSpaceOnUse"><stop offset="0" stop-color="#64cdf0"/><stop offset="0.95" stop-color="#46c8eb"/></linearGradient><linearGradient id="未命名漸層_53" y1="61.46" x2="73.52" y2="61.46" gradientTransform="translate(108.37 60.35) rotate(120)" gradientUnits="userSpaceOnUse"><stop offset="0" stop-color="#64cdf0"/><stop offset="0.95" stop-color="#46c8eb"/></linearGradient><linearGradient id="未命名漸層_366" x1="68.03" y1="100.73" x2="141.55" y2="100.73" gradientTransform="translate(-34.84 141.12) rotate(-60)" gradientUnits="userSpaceOnUse"><stop offset="0.05" stop-color="#48c6ec"/><stop offset="0.16" stop-color="#48c6ec"/><stop offset="1" stop-color="#00b4ef"/></linearGradient><linearGradient id="未命名漸層_55" x1="70.73" y1="162.41" x2="70.73" y2="117.17" gradientUnits="userSpaceOnUse"><stop offset="0.1" stop-color="#46c8eb"/><stop offset="0.5" stop-color="#67ccf2"/><stop offset="0.69" stop-color="#5acaef"/><stop offset="0.9" stop-color="#46c8eb"/></linearGradient></defs><title>資產 1</title><g id="圖層_2" data-name="圖層 2"><g id="Layer_1" data-name="Layer 1"><path class="cls-1" d="M238.11,36.64A64.43,64.43,0,0,1,252,38a31.12,31.12,0,0,1,10.42,4.14,19.19,19.19,0,0,1,6.6,7.18,21.83,21.83,0,0,1,2.32,10.35,19.25,19.25,0,0,1-4.91,13.52q-4.92,5.37-14.37,7.31v.26q9.84,1.15,15.6,6.79t5.76,14.69A21.94,21.94,0,0,1,270.52,114a22.58,22.58,0,0,1-7.76,7.63,34.26,34.26,0,0,1-11.13,4.14A66.7,66.7,0,0,1,238.76,127H212.49V36.64Zm-4.79,38.43a79,79,0,0,0,8.8-.46,23.4,23.4,0,0,0,7.25-1.87,11.46,11.46,0,0,0,4.85-4,12.3,12.3,0,0,0,1.75-7,12.33,12.33,0,0,0-1.56-6.47,10.52,10.52,0,0,0-4.27-4,20.7,20.7,0,0,0-6.46-2,53.09,53.09,0,0,0-8.16-.58h-8v26.4Zm1.94,40q11.52,0,17.09-3.37t5.56-10.87q0-7.62-6-11t-18.64-3.37H227.5v28.6Z"/><path class="cls-1" d="M361.49,48.35a42.76,42.76,0,0,0-8.28-.84q-7.24,0-11.58,3.17a9.73,9.73,0,0,0-4.33,8.21,12.47,12.47,0,0,0,.64,4.08,9.64,9.64,0,0,0,2.53,3.68,24.76,24.76,0,0,0,5.11,3.63A73.39,73.39,0,0,0,354,74.16q12.17,4.78,17.6,11T377,100.94a26.92,26.92,0,0,1-2.33,11.33,24.66,24.66,0,0,1-6.53,8.67A30.86,30.86,0,0,1,358,126.5a41.51,41.51,0,0,1-13.33,2A72.53,72.53,0,0,1,333,127.6a53.52,53.52,0,0,1-10.8-3l1.55-14a47,47,0,0,0,10.55,3.94,42,42,0,0,0,9.38,1.1q7.77,0,12.62-3.36a10.84,10.84,0,0,0,4.85-9.44,14.6,14.6,0,0,0-.78-4.92,10.85,10.85,0,0,0-2.78-4.14A25.68,25.68,0,0,0,352.18,90a73.55,73.55,0,0,0-8.54-3.94A66.62,66.62,0,0,1,333.16,81a29.45,29.45,0,0,1-6.93-5.75,19.76,19.76,0,0,1-3.81-6.67,25.78,25.78,0,0,1-1.17-8.08A24.47,24.47,0,0,1,323.45,50a22.7,22.7,0,0,1,6.21-8,28.76,28.76,0,0,1,9.71-5.11,41.14,41.14,0,0,1,12.55-1.81,67.25,67.25,0,0,1,10.41.77,54.26,54.26,0,0,1,10,2.59l-1.55,12.94A45.48,45.48,0,0,0,361.49,48.35Z"/><path class="cls-1" d="M486.11,38.38a38.6,38.6,0,0,1,13.58,9.32,41,41,0,0,1,8.67,14.56,56.7,56.7,0,0,1,3,19.15,58,58,0,0,1-3.11,19.6,41.18,41.18,0,0,1-8.86,14.81,39,39,0,0,1-13.84,9.38,51.22,51.22,0,0,1-36.23,0,39.39,39.39,0,0,1-13.84-9.31,41,41,0,0,1-8.87-14.62,56.76,56.76,0,0,1-3.11-19.35,58,58,0,0,1,3.11-19.66,40.39,40.39,0,0,1,8.93-14.69,39.2,39.2,0,0,1,14.1-9.25,51.19,51.19,0,0,1,18.76-3.23A45.93,45.93,0,0,1,486.11,38.38Zm-29.7,11.45a25.47,25.47,0,0,0-8.54,7,32.44,32.44,0,0,0-5.56,10.87,47.9,47.9,0,0,0-1.94,14.11A48.48,48.48,0,0,0,442.31,96a31.61,31.61,0,0,0,5.56,10.87,25.43,25.43,0,0,0,8.6,6.92,25,25,0,0,0,11.2,2.46,24.36,24.36,0,0,0,10.93-2.46,25.18,25.18,0,0,0,8.61-7,32.53,32.53,0,0,0,5.56-10.87,48.21,48.21,0,0,0,1.94-14.1,49.31,49.31,0,0,0-1.94-14.3,32.32,32.32,0,0,0-5.5-10.87,24.1,24.1,0,0,0-8.6-6.86,25.91,25.91,0,0,0-11.26-2.39A24.36,24.36,0,0,0,456.41,49.83Z"/><path class="cls-1" d="M597.59,48.35a42.76,42.76,0,0,0-8.28-.84q-7.24,0-11.58,3.17a9.74,9.74,0,0,0-4.34,8.21A12.47,12.47,0,0,0,574,63a9.6,9.6,0,0,0,2.52,3.68,25.13,25.13,0,0,0,5.12,3.63,72.6,72.6,0,0,0,8.41,3.88q12.17,4.78,17.59,11t5.44,15.78a27.08,27.08,0,0,1-2.33,11.33,24.66,24.66,0,0,1-6.53,8.67,30.86,30.86,0,0,1-10.16,5.56,41.51,41.51,0,0,1-13.33,2,72.53,72.53,0,0,1-11.71-.91,53.17,53.17,0,0,1-10.8-3l1.55-14a47.07,47.07,0,0,0,10.54,3.94,42.09,42.09,0,0,0,9.38,1.1q7.77,0,12.62-3.36a10.82,10.82,0,0,0,4.85-9.44,14.85,14.85,0,0,0-.77-4.92,10.85,10.85,0,0,0-2.78-4.14A25.68,25.68,0,0,0,588.28,90a73.79,73.79,0,0,0-8.55-3.94A66.92,66.92,0,0,1,569.26,81a29.45,29.45,0,0,1-6.93-5.75,19.62,19.62,0,0,1-3.82-6.67,26.09,26.09,0,0,1-1.16-8.08A24.32,24.32,0,0,1,559.55,50a22.7,22.7,0,0,1,6.21-8,28.76,28.76,0,0,1,9.71-5.11A41.09,41.09,0,0,1,588,35.09a67.25,67.25,0,0,1,10.41.77,54.46,54.46,0,0,1,10,2.59l-1.55,12.94A45.48,45.48,0,0,0,597.59,48.35Z"/><rect class="cls-2" x="102" y="98.19" width="5.58" height="84.03" rx="2.79" transform="translate(173.82 -20.65) rotate(60)"/><rect class="cls-3" x="33.97" y="19.67" width="5.58" height="84.03" rx="2.79" transform="translate(108.56 60.69) rotate(120)"/><rect class="cls-4" x="33.97" y="58.72" width="5.58" height="84.03" rx="2.79" transform="translate(142.38 119.26) rotate(120)"/><rect class="cls-5" x="33.97" y="98.19" width="5.58" height="84.03" rx="2.79" transform="translate(176.57 178.48) rotate(120)"/><rect class="cls-6" y="39.25" width="5.58" height="44.61" rx="2.79"/><rect class="cls-7" x="102" y="-19.61" width="5.58" height="84.03" rx="2.79" transform="translate(32.99 101.96) rotate(-60)"/><rect class="cls-8" x="102" y="19.44" width="5.58" height="84.03" rx="2.79" transform="translate(-0.83 121.48) rotate(-60)"/><rect class="cls-9" x="102" y="58.92" width="5.58" height="84.03" rx="2.79" transform="translate(-35.02 141.22) rotate(-60)"/><rect class="cls-7" x="67.94" y="0.01" width="5.58" height="45.03" rx="2.79"/><rect class="cls-10" x="135.97" y="78.3" width="5.58" height="45.12" rx="2.79"/><path class="cls-11" d="M36.74-19.61h0a2.81,2.81,0,0,1,2.81,2.81V61.66a2.77,2.77,0,0,1-2.77,2.77h0A2.81,2.81,0,0,1,34,61.61V-16.84a2.77,2.77,0,0,1,2.77-2.77Z" transform="matrix(-0.5, -0.87, 0.87, -0.5, 35.74, 65.45)"/><rect class="cls-12" x="102" y="19.67" width="5.58" height="84.03" rx="2.79" transform="translate(105.81 -59.91) rotate(60)"/><rect class="cls-13" x="33.97" y="19.44" width="5.58" height="84.03" rx="2.79" transform="translate(1.92 124.02) rotate(-120)"/><rect class="cls-14" x="102" y="58.72" width="5.58" height="84.03" rx="2.79" transform="matrix(0.5, 0.87, -0.87, 0.5, 139.63, -40.38)"/><rect class="cls-6" x="33.97" y="58.92" width="5.58" height="84.03" rx="2.79" transform="translate(-32.27 183.24) rotate(-120)"/><path class="cls-15" d="M70.7,117.17h0a2.76,2.76,0,0,1,2.76,2.76v39.71a2.76,2.76,0,0,1-2.76,2.76h0a2.81,2.81,0,0,1-2.81-2.81V119.93a2.76,2.76,0,0,1,2.76-2.76Z"/></g></g></svg>